<svg id="Layer_1" data-name="Layer 1" xmlns="http://www.w3.org/2000/svg" viewBox="0 0 622.8 616.83"><defs><style>.cls-1{font-size:134.04px;font-family:WTRGothicOpenShaded, WTR Gothic Open Shaded;}.cls-1,.cls-4{fill:#d65677;}.cls-2{letter-spacing:-0.07em;}.cls-3{letter-spacing:-0.05em;}</style></defs><title>knowbyheart</title><text class="cls-1" transform="translate(100.28 113.94)">KN<tspan class="cls-2" x="190.34" y="0">O</tspan><tspan x="270.77" y="0">W</tspan></text><text class="cls-1" transform="translate(91.37 430.86)">HEA<tspan class="cls-3" x="271.57" y="0">R</tspan><tspan x="352.53" y="0">T</tspan></text><path class="cls-4" d="M694.52,682.58a233.82,233.82,0,0,0-24.61-25.44c-9.15-7.95-19.15-14.67-29.32-21.22-25.52-16.42-50.79-33.24-76-50.12-23.84-15.94-48.43-31.13-70.67-49.32a385.66,385.66,0,0,1-56.35-56.9C420.88,458.82,406.14,436,396.77,411c-8.77-23.45-12.52-48.77-8.37-73.63,4-23.67,14.89-46.12,33.24-61.94,20.27-17.48,47.34-26.36,73.73-28.17a153,153,0,0,1,79.15,15.84C597.84,275,618.81,292.15,635.77,312c2.82,3.28,5.5,6.69,8.06,10.18.34,12.82,4.56,19.94,11.93,21.13,6.88,1.1,15-4,20.33-13.87a13.1,13.1,0,0,0,4.12.54,18.54,18.54,0,0,0,8.23-1.8c.43,6.42,2.94,11.6,9,12.6,9.88,1.5,18.54-12.38,19.64-14.29.28-.57.57-1,.82-.83s.28.41.15,1.23-1.24,8-2.75,16.77c-9.08,5.08-17.86,12.22-22.68,20.18A28.08,28.08,0,0,0,688.35,378c0,4.52,1.5,8.36,4.95,10.43a9.74,9.74,0,0,0,5.08,1.38c5.36,0,11.14-4,14.7-8.93,4.68-6.59,8.65-16.49,11.54-34.89.27-1.1.42-2.47.69-3.71,8.36-4.71,17.68-15.53,19.49-19.35h0l.13-.17c14.56-21.38,34.36-39.3,56.44-52.67a159.1,159.1,0,0,1,76.2-23.32c26.73-1,54.31,4.89,77.21,19.07,21,13,35.65,33.08,42.65,56.65s6.45,48.5.21,72c-6.78,25.62-19.73,49.18-35.13,70.59a373.36,373.36,0,0,1-53.47,59.35,381.26,381.26,0,0,1-31.26,25.3C866.16,558.2,854,566,842.07,573.94c-25,16.71-50,33.48-75.2,49.94-11.63,7.6-23.62,14.77-34.85,23a191.11,191.11,0,0,0-25.69,22.54c-4.08,4.27-8,8.7-11.81,13.21m.64,4.17a1.55,1.55,0,0,0,.88-.55,242.56,242.56,0,0,1,26-27c9.72-8.41,20.43-15.32,31.22-22.27,26-16.77,51.71-34,77.42-51.14,24-16,48.47-31.35,70.6-49.91a384.88,384.88,0,0,0,56.61-58.72c16.31-21,30.54-44,39.33-69.26,8.27-23.73,11.19-49.17,6.57-74-4.44-23.74-15.95-46.2-34.56-61.9-20.43-17.22-47.06-26.18-73.46-28.34a158.72,158.72,0,0,0-80.31,14.87,189.16,189.16,0,0,0-62.29,47.75,160,160,0,0,0-10.65,13.84c-.52.65-1.11,1.41-1.77,2.29C737.54,326.77,733,333.79,726,338c2.48-15.79,6.19-36.25,6.46-38.45.42-2.6-2.47-2.75-5.35-2.88s-4.81,1.23-4.81,2.61-2.2,16.34-8.11,26c-5.76,9.75-12,12.63-15.11,11.26-1.11-.41-1.51-2.06-1.51-4.41,0-4.38,1.51-10.84,2.2-14.14,1-4.81,4-17.17,4.39-18.82s-2.33-3.3-4.26-3.3-2.75.14-4,1.12c-1.38.81-4.41,9.59-6.33,18.67a60.71,60.71,0,0,0-1.16,8.24c-.12.11-.24.23-.38.34-1.23,1.38-3.85,1.93-6.18,1.93a16.12,16.12,0,0,1-4-.55c.54-1.23,1.1-2.47,1.52-3.71A44.15,44.15,0,0,0,682,308.3c0-6.59-2.61-10.44-6.88-10.57-6.59-.28-10.3,9.74-9.07,18.4a16.2,16.2,0,0,0,7.14,11.81c-3.83,7.29-10.29,12-15.38,11.54-2.74-.13-3.85-3-3.85-8.79a151.28,151.28,0,0,1,1.93-19.77c6.59-7.15,15.94-20.89,22.4-34.63,3.29-6.86,6.46-15.25,6.46-21.7,0-4.81-1.8-8.51-6.6-9.61-10.85-2.48-22.53,16.76-29.81,45.46a143.23,143.23,0,0,0-4.41,26.05,208.74,208.74,0,0,0-50.51-46.43,159.83,159.83,0,0,0-75.57-26.2c-27.2-2.14-55.44,2.84-79.53,15.89a102.5,102.5,0,0,0-29.89,24,104.49,104.49,0,0,0-17.63,30.75c-8.51,22.93-9.58,48.27-4.74,72.12,5.39,26.48,17.6,51.16,32.68,73.39a367,367,0,0,0,53.12,61.78,388.87,388.87,0,0,0,31.43,26.49c11.54,8.73,23.68,16.58,35.7,24.61,25.84,17.27,51.65,34.6,77.65,51.63,12.2,8,24.74,15.55,36.63,24a188.26,188.26,0,0,1,26.91,23.3c4.5,4.71,8.79,9.6,13,14.59a1.47,1.47,0,0,0,2,.33M658.38,294.28c5.08-32.54,12.49-47.38,19.09-45,2.19.7,3,2.88,3,5.91,0,6.18-3.72,16.07-8.4,25.27a96.75,96.75,0,0,1-15,21.85C657.55,299.64,658,297,658.38,294.28Zm16.75,29.13c-.13.28-.13.55-.28.82a10.79,10.79,0,0,1-4.25-4.67,17.26,17.26,0,0,1-1.23-6.44c0-4.27,1.5-7.85,4.11-7.7,2.35.14,3.58,2.88,3.58,7A35.7,35.7,0,0,1,675.13,323.41Zm35.48,45C707.17,384.2,700,387.5,695.76,385.7c-1.78-.82-2.88-3-2.88-6.31s1.1-7.55,3.3-12.38c3.43-7.54,10.44-14.14,18.42-18.95C713.36,354.94,712,362.35,710.61,368.39Z" transform="translate(-383.2 -70.17)"/></svg>